<svg width="192" height="48" viewBox="0 0 192 48" fill="none" xmlns="http://www.w3.org/2000/svg">
<path d="M28.2485 25.5157H19.6313C18.6716 25.5157 18.3641 24.9353 18.3641 24.1451C18.3641 23.5043 18.3613 4.00287 18.3613 4.00287H15.3327V26.892C15.3327 27.8546 16.1746 28.4867 16.7981 28.4867H28.2485V25.5157Z" fill="#E50695"/>
<path d="M28.2513 29.6217V32.6014H12.9507C11.9048 32.6014 11.1779 31.8313 11.1779 30.8343C11.1893 29.6619 11.1779 4.00287 11.1779 4.00287H14.1949V27.7713C14.1949 28.8143 14.6546 29.6217 15.9476 29.6217H28.2513Z" fill="#E50695"/>
<path d="M7 4H10.0314V31.6676C10.0314 32.6704 10.54 33.7306 12.0255 33.7306H28.2513V36.7017H10.6003C8.58897 36.7017 7 35.0581 7 33.0985V4Z" fill="#E50695"/>
<path d="M19.4962 4H22.5276V20.246C22.5276 20.8379 22.8006 21.4011 23.6626 21.4011H28.2513V24.3807H21.0392C19.9301 24.3807 19.4991 23.6882 19.4991 22.8952V4H19.4962Z" fill="#E50695"/>
<path d="M23.677 15.186H32.2942C33.2539 15.186 33.5613 15.7664 33.5613 16.5594C33.5613 17.1973 33.5671 36.7017 33.5671 36.7017H36.5956V13.8096C36.5956 12.8499 35.7537 12.2149 35.1302 12.2149H23.6741V15.186H23.677Z" fill="#E50695"/>
<path d="M23.6741 11.0799V8.10315H38.9719C40.0178 8.10315 40.7447 8.87321 40.7447 9.87026C40.7332 11.0397 40.7447 36.7017 40.7447 36.7017H37.7277V12.9333C37.7277 11.8902 37.2651 11.0828 35.9749 11.0828H23.6741V11.0799Z" fill="#E50695"/>
<path d="M44.9255 36.7017H41.8941V9.03412C41.8941 8.03132 41.3855 6.97392 39.8999 6.97392H23.6741V4H41.3223C43.3365 4 44.9255 5.64356 44.9255 7.60606V36.7017Z" fill="#E50695"/>
<path d="M32.4292 36.7017H29.3978V20.4557C29.3978 19.8638 29.1248 19.2977 28.2628 19.2977H23.677V16.3152H30.8891C31.9982 16.3152 32.4292 17.0106 32.4292 17.8036V36.7017Z" fill="#E50695"/>
<path d="M114.504 22.5619C114.504 21.5418 115.288 20.7229 116.317 20.7229H119.029V17.7145H115.814C113.375 17.7145 111.444 19.6655 111.444 22.0677V36.7017H114.507L114.501 22.5647L114.504 22.5619Z" fill="#E50695"/>
<path d="M69.9581 17.6599H66.8951V36.6988H69.9581V17.6599Z" fill="#E50695"/>
<path d="M118.607 44H121.696V34.0122C123.535 35.7793 126.049 36.8712 128.825 36.8712C132.497 36.8712 135.721 34.9575 137.519 32.0899C139.318 34.9575 142.539 36.8712 146.214 36.8712C149.889 36.8712 153.113 34.9575 154.909 32.0899C156.71 34.9575 159.932 36.8712 163.607 36.8712C169.25 36.8712 173.821 32.3658 173.821 26.8087C173.821 21.2516 169.25 16.7433 163.607 16.7433C159.932 16.7433 156.71 18.657 154.909 21.5275C153.113 18.657 149.889 16.7433 146.214 16.7433C142.539 16.7433 139.318 18.657 137.519 21.5275C135.718 18.657 132.497 16.7433 128.825 16.7433C123.184 16.7433 118.607 21.2487 118.607 26.8087V44.0029V44ZM163.604 19.7517C167.552 19.7517 170.761 22.9182 170.761 26.8058C170.761 30.6935 167.552 33.8599 163.604 33.8599C159.656 33.8599 156.443 30.6935 156.443 26.8058C156.443 22.9182 159.656 19.7517 163.604 19.7517ZM146.211 19.7517C150.162 19.7517 153.372 22.9182 153.372 26.8058C153.372 30.6935 150.159 33.8599 146.211 33.8599C142.263 33.8599 139.051 30.6935 139.051 26.8058C139.051 22.9182 142.263 19.7517 146.211 19.7517ZM128.822 19.7517C132.77 19.7517 135.982 22.9182 135.982 26.8058C135.982 30.6935 132.77 33.8599 128.822 33.8599C124.874 33.8599 121.664 30.6935 121.664 26.8058C121.664 22.9182 124.871 19.7517 128.822 19.7517Z" fill="#E50695"/>
<path d="M99.7203 36.7649C104.418 36.7649 108.435 33.6473 109.536 29.1648H106.576C105.556 32.0382 102.812 33.9662 99.7203 33.9662C95.9648 33.9662 92.8386 31.1762 92.4737 27.3891H109.829V26.8029C109.829 21.312 105.292 16.8439 99.7232 16.8439C94.1546 16.8439 89.6118 21.312 89.6118 26.8029C89.6118 32.2939 94.1489 36.762 99.7232 36.762M99.7232 19.6425C102.806 19.6425 105.608 21.5734 106.631 24.5876H92.8099C93.8299 21.5734 96.6401 19.6425 99.7232 19.6425Z" fill="#E50695"/>
<path d="M82.8624 36.6988L90.5314 17.6599H87.0373L80.8683 32.9835L74.6963 17.6599H71.2052L78.8713 36.6988H82.8624Z" fill="#E50695"/>
<path d="M178.396 11.1345H175.333V36.6988H178.396V11.1345Z" fill="#E50695"/>
<path d="M56.3671 11.1345V31.9089C56.3758 32.9433 56.9792 33.7507 58.1802 33.7507H65.7055V36.6988H55.3356C54.0282 36.6988 53.2697 35.9115 53.2697 34.7707V11.1345H56.3671Z" fill="#E50695"/>
<path d="M69.9581 11.1345H66.8922V14.186H69.9581V11.1345Z" fill="#E50695"/>
<path d="M183.941 15.097C182.826 15.097 181.93 14.2062 181.93 13.1086C181.93 12.011 182.826 11.126 183.941 11.126C185.056 11.126 185.958 12.0081 185.958 13.1086C185.958 14.2091 185.056 15.097 183.941 15.097ZM183.941 11.4535C183.013 11.4535 182.263 12.192 182.263 13.1086C182.263 14.0252 183.013 14.7665 183.941 14.7665C184.869 14.7665 185.628 14.0223 185.628 13.1086C185.628 12.1949 184.872 11.4535 183.941 11.4535ZM183.059 12.0742H184.016C184.553 12.0742 184.731 12.4017 184.731 12.6316C184.731 12.9793 184.481 13.2264 184.117 13.2465V13.2609C184.306 13.3241 184.438 13.5051 184.619 13.7925L184.884 14.2091H184.459L184.266 13.8758C183.99 13.3988 183.887 13.3011 183.619 13.3011H183.41V14.2091H183.059V12.0771V12.0742ZM183.915 13.0052C184.183 13.0052 184.364 12.9046 184.364 12.6833C184.364 12.4879 184.203 12.3644 183.976 12.3644H183.413V13.008H183.915V13.0052Z" fill="#E50695"/>
</svg>
